<?xml version="1.0" encoding="UTF-8"?>
<svg width="200" height="200" viewBox="0 0 200 200" xmlns="http://www.w3.org/2000/svg">
  <!-- Main Circle with soft shadow -->
  <defs>
    <filter id="shadow" x="-20%" y="-20%" width="140%" height="140%">
      <feDropShadow dx="0" dy="4" stdDeviation="6" flood-opacity="0.3" />
    </filter>
  </defs>
  
  <!-- Main circle with gradient -->
  <circle cx="100" cy="100" r="85" fill="url(#gradient)" filter="url(#shadow)" />
  
  <!-- Gradient definition -->
  <defs>
    <linearGradient id="gradient" x1="0%" y1="0%" x2="100%" y2="100%">
      <stop offset="0%" stop-color="#4f46e5" />
      <stop offset="100%" stop-color="#3b82f6" />
    </linearGradient>
  </defs>
  
  <!-- Checkmark with animation -->
  <path d="M70,100 L90,120 L140,70" stroke="white" stroke-width="12" stroke-linecap="round" stroke-linejoin="round" fill="none">
    <animate attributeName="stroke-dasharray" from="0,300" to="300,0" dur="1.5s" begin="0s" fill="freeze" />
  </path>
  
  <!-- Clipboard outline -->
  <path d="M75,60 L125,60 Q135,60 135,70 L135,140 Q135,150 125,150 L75,150 Q65,150 65,140 L65,70 Q65,60 75,60 Z" fill="none" stroke="white" stroke-width="4" stroke-linecap="round" opacity="0.6" />
  
  <!-- Top of clipboard -->
  <path d="M85,50 L115,50 Q120,50 120,55 L120,65 L80,65 L80,55 Q80,50 85,50 Z" fill="white" opacity="0.8" />
</svg>