
<svg width="200" height="250" viewBox="0 0 200 250" xmlns="http://www.w3.org/2000/svg">
  <!-- Character Body -->
  <g id="character">
    <!-- Body -->
    <ellipse cx="100" cy="180" rx="35" ry="45" fill="#4A90E2" stroke="#2E5A87" stroke-width="2"/>
    
    <!-- Head -->
    <circle cx="100" cy="120" r="30" fill="#FDBCB4" stroke="#E8A598" stroke-width="2"/>
    
    <!-- Hair -->
    <path d="M75 100 Q100 85 125 100 Q120 95 115 100 Q105 90 100 95 Q95 90 85 100 Q80 95 75 100" fill="#8B4513"/>
    
    <!-- Glasses -->
    <g id="glasses">
      <circle cx="90" cy="115" r="12" fill="none" stroke="#333" stroke-width="3"/>
      <circle cx="110" cy="115" r="12" fill="none" stroke="#333" stroke-width="3"/>
      <line x1="102" y1="115" x2="98" y2="115" stroke="#333" stroke-width="2"/>
      <line x1="78" y1="115" x2="75" y2="118" stroke="#333" stroke-width="2"/>
      <line x1="122" y1="115" x2="125" y2="118" stroke="#333" stroke-width="2"/>
    </g>
    
    <!-- Eyes -->
    <circle cx="90" cy="115" r="6" fill="#FFF"/>
    <circle cx="110" cy="115" r="6" fill="#FFF"/>
    <circle cx="90" cy="115" r="3" fill="#333"/>
    <circle cx="110" cy="115" r="3" fill="#333"/>
    
    <!-- Nose -->
    <ellipse cx="100" cy="125" rx="2" ry="3" fill="#E8A598"/>
    
    <!-- Mouth (smile) -->
    <path d="M92 135 Q100 142 108 135" fill="none" stroke="#333" stroke-width="2" stroke-linecap="round"/>
    
    <!-- Arms -->
    <g id="leftArm">
      <ellipse cx="70" cy="160" rx="8" ry="25" fill="#FDBCB4" transform="rotate(-20 70 160)"/>
      <circle cx="65" cy="180" r="6" fill="#FDBCB4"/>
    </g>
    
    <g id="rightArm">
      <ellipse cx="130" cy="160" rx="8" ry="25" fill="#FDBCB4" transform="rotate(20 130 160)"/>
      <circle cx="135" cy="180" r="6" fill="#FDBCB4"/>
    </g>
    
    <!-- Legs -->
    <ellipse cx="85" cy="210" rx="8" ry="20" fill="#2C3E50"/>
    <ellipse cx="115" cy="210" rx="8" ry="20" fill="#2C3E50"/>
    
    <!-- Feet -->
    <ellipse cx="85" cy="235" rx="12" ry="6" fill="#000"/>
    <ellipse cx="115" cy="235" rx="12" ry="6" fill="#000"/>
  </g>
  
  <!-- Rope -->
  <path id="rope" d="M135 180 Q200 160 300 120" fill="none" stroke="#8B4513" stroke-width="3" stroke-dasharray="5,5"/>
</svg>
